<svg xmlns="http://www.w3.org/2000/svg" width="256" height="256" fill="none" viewBox="0 0 256 256">
  <g clip-path="url(#a)">
    <path fill="#fff" d="M256 0H0v256h256V0Z"/>
    <path fill="#000" d="M133.927 192.795c42.538 0 77.022-34.484 77.022-77.023 0-42.538-34.484-77.022-77.022-77.022-42.538 0-77.023 34.484-77.023 77.022 0 42.539 34.484 77.023 77.023 77.023Z" opacity=".04"/>
    <mask id="b" width="22" height="20" x="169" y="66" maskUnits="userSpaceOnUse" style="mask-type:luminance">
      <path fill="#fff" d="M190.404 66.25h-20.75v19.5h20.75v-19.5Z"/>
    </mask>
    <g mask="url(#b)">
      <path stroke="#000" stroke-linecap="round" stroke-linejoin="round" stroke-miterlimit="10" stroke-width=".75" d="M173.963 66.481v19.038m6.066-19.038v19.038m6.069-19.038v19.038m4.075-15.056h-20.288M190.173 76h-20.288m20.288 5.537h-20.288"/>
      <path fill="#000" d="M180.154 70.5h-6.25V76h6.25v-5.5Zm6 5.5h-6.25v5.5h6.25V76Z"/>
    </g>
    <mask id="c" width="23" height="23" x="158" y="36" maskUnits="userSpaceOnUse" style="mask-type:luminance">
      <path fill="#fff" d="M180.404 36.75h-21.75V58.5h21.75V36.75Z"/>
    </mask>
    <g mask="url(#c)">
      <path fill="#000" d="M175.119 36.75h-16.465v16.464h16.465V36.75Z"/>
      <path fill="#fff" stroke="#000" stroke-linecap="round" stroke-linejoin="round" stroke-miterlimit="10" stroke-width=".75" d="M180.109 41.74h-16.464v16.465h16.464V41.74Z"/>
      <path fill="#fff" d="M168.469 54.927a3.928 3.928 0 0 1 3.407-1.969c1.457 0 2.731.791 3.41 1.969"/>
      <path stroke="#000" stroke-linecap="round" stroke-linejoin="round" stroke-miterlimit="10" stroke-width=".75" d="M168.469 54.927a3.928 3.928 0 0 1 3.407-1.969c1.457 0 2.731.791 3.41 1.969"/>
      <path fill="#fff" stroke="#000" stroke-linecap="round" stroke-linejoin="round" stroke-miterlimit="10" stroke-width=".75" d="M171.878 51.836a3.41 3.41 0 1 0 .001-6.819 3.41 3.41 0 0 0-.001 6.819Z"/>
    </g>
    <path fill="#000" fill-rule="evenodd" d="M143.904 58.5a8.5 8.5 0 0 0-8.5 8.5v2.75a8.5 8.5 0 0 0 8.5 8.5h2.75a8.5 8.5 0 0 0 8.5-8.5V67a8.5 8.5 0 0 0-8.5-8.5h-2.75Zm-1.093 14.369 6.868-4.716-6.868-4.716v9.432Z" clip-rule="evenodd"/>
    <path stroke="#000" stroke-linecap="round" stroke-linejoin="round" stroke-miterlimit="10" stroke-width=".75" d="M172.916 215.69c.53-1.43.425-3.137.193-4.607-.555-3.48-.7-7.038-.253-10.541.225-1.757.568-3.547 1.138-5.23.552-1.624 1.187-3.227 1.51-4.919.067-.35.12-.703.157-1.058.328-3.135-1.345-6.145.683-8.915 1.485-2.03 3.57-2.71 4.33-2.92l.242 3.018c.188.01.838.064 1.363.584.285.283.422.591.487.778.21-.187 1.748-.647 2.34-.685.613-.04 1.133.02 1.405.157.08.403-.267 1.823-.365 2.123-.222.683-1.05 2.26-1.382 2.573-.32 1.085-.48 2.237-.005 4.005.402 1.497 1.127 2.245 2.19 3.747a25.336 25.336 0 0 1 4.065 9.27c.375 1.743.567 3.525.597 5.308.023 1.452-.422 3.549.303 4.887.127.235.457.843.972.925.89.14 1.78-1.368 2.093-1.898.52-.882 1.18-2.347 1.41-5.692.142-2.06-.073-2.02.047-4.767.075-1.685.138-2.985.488-4.673.647-3.135 2.062-6.13 5.562-6.767.24 1.292-.865 2.387-1.625 3.462-2.39 3.387-1.61 7.955-1.702 12.103-.088 3.985-1.41 10.967-5.728 12.652a9.24 9.24 0 0 1-3.352.625c-6.035-.037-12.038-.275-18.073-.26-.167 0-.342 0-.497-.07-.368-.168-.465-.675-.308-1.048.158-.372.488-.635.81-.877.418-.32.708-.762.905-1.29Z"/>
    <path stroke="#000" stroke-linecap="round" stroke-linejoin="round" stroke-miterlimit="10" stroke-width=".75" d="M185.417 201.27c-.795.345-3.213 1.518-4.653 4.275-2.092 4.008-.357 7.98-.125 8.488-1.717.775-3.437 1.55-5.155 2.327m1.281-16.612-.347 10.26m1.788-25.163-5.737-3.007m5.738 4.657h-7.553m11.057-1.083h7.412m-7.525 1.673 7.64 2.767m-4.89 26.771a6.1 6.1 0 0 0 2.975-2.148c1.24-1.682 1.187-3.467 1.157-3.967"/>
    <path fill="#000" d="m79.25 219.25 12.022-66.75h4.478l-11.632 66.75H79.25Zm49.654 0-7.125-44.875-3.125 8.25 5.383 36.625h4.867Z"/>
    <path fill="#000" d="m83.404 151.128 32-.128-2.816 5.867-29.184.383v-6.122Z"/>
    <path stroke="#000" stroke-linecap="round" stroke-linejoin="round" stroke-width=".75" d="M153.447 213.935c1.451.038 4.136-.403 3.274-2.471-.862-2.067-2.542.786-3.274 2.471Zm0 0c.366-1.167.685-3.562-.969-3.807-1.654-.245-.043 2.436.969 3.807Zm-35.309 1.549c1.302.214 3.776.15 3.256-1.819-.52-1.97-2.387.392-3.256 1.819Zm0 0c.475-1.006 1.059-3.124-.401-3.55-1.459-.426-.341 2.189.401 3.55Z"/>
    <path fill="#000" d="M102.276 82.234c-2.306.193-4.869-1.398-5.647-2.018 0 0 .68 2.151 2.297 3.32 1.617 1.17 3.35 1.215 3.35 1.215v-2.517Z"/>
    <path stroke="#000" stroke-linecap="round" stroke-linejoin="round" stroke-width=".75" d="M94.871 86.122h-9.064c-1.63.04-4.817 1.385-4.527 6.442.215 3.748.79 13.427 1.252 21.156a7.497 7.497 0 0 0 7.486 7.05h20.971c-1.242-1.536-2.98-5.234 0-7.744l-14.076-.428a2.5 2.5 0 0 1-2.388-2.076l-2.75-16.023"/>
    <path stroke="#000" stroke-linecap="round" stroke-linejoin="round" stroke-width=".75" d="M94.836 86.01c.37 1.166 1.914 4.852 5.577 4.72 3.663-.13 4.783-3.289 4.783-4.216h4.971c.773-.07 2.657.674 4.007 4.217a8486.57 8486.57 0 0 0 5.764 15.043"/>
    <path stroke="#000" stroke-linecap="round" stroke-linejoin="round" stroke-width=".75" d="m117.943 114.822 2.698-12.518c.538.703 2.839 1.898 7.732 1.055v10.277"/>
    <path stroke="#000" stroke-linecap="round" stroke-linejoin="round" stroke-width=".75" d="m121.792 103.138.993-5.957-1.933-8.778c.331-.436 1.181-1.045 1.933 0 .753 1.045 1.08 2.177 1.15 2.612l2.821-6.427c.262-.8 1.359-2.163 3.658-1.201 2.299.961 2.177 4.232 1.829 5.748l-4.651 8.517v5.852"/>
    <path stroke="#000" stroke-linecap="round" stroke-linejoin="round" stroke-width=".75" d="M125.156 90.379c.645.707 1.802 2.49 1.273 3.961m.083-5.82c.673-.022 2.303.308 3.432 1.796m-2.053-1.604 1.604-3.753m-.481 4.363 1.443-2.021m-21.052 8.559 2.118 4.594c1.145 2.484-.67 5.32-3.406 5.32h-.244m1.996 9.208h7.944l4.965-1.754c1.812-.61 5.958-.773 8.049 3.449 2.091 4.223 2.265 4.722 2.091 4.443"/>
    <path stroke="#000" stroke-linecap="round" stroke-linejoin="round" stroke-width=".75" d="M117.123 120.859c1.139.276 5.673-2.265 6.44-2.875.749.331 2.415 1.369 3.084 2.875m-.432-3.255c.582.363 1.871 1.417 2.367 2.724m-.209-2.724c.583.363 1.872 1.417 2.368 2.724m-65.077.531h143.459"/>
    <path fill="#000" d="M191.645 120.775h-5.788c-.94 0-1.703-.763-1.703-1.703v-8.477h9.193v8.476c0 .941-.763 1.704-1.702 1.704Z"/>
    <path stroke="#000" stroke-miterlimit="10" stroke-width=".75" d="M194.134 116.64h-.786v-3.956h.786a1.977 1.977 0 1 1 0 3.956Z"/>
    <path stroke="#fff" stroke-miterlimit="10" stroke-width=".75" d="m186.197 116.64 2.98-2.979m-1.489 4.755 2.979-2.979"/>
    <path stroke="#000" stroke-miterlimit="10" stroke-width=".75" d="M187.296 102.713c-.687.71-1.072 1.699-.298 2.491.286.293.634.534.855.88.596.931-.066 1.949-.672 2.673m2.118-2.949c.953.659 1.043 1.37 1.045 1.716.004.672-.369 1.183-1.045 1.966m-17.213 11.147h-32.585a2.499 2.499 0 0 1-2.407-3.172l6.102-21.888a2.5 2.5 0 0 1 2.408-1.827h32.585a2.499 2.499 0 0 1 2.407 3.172l-6.105 21.888a2.491 2.491 0 0 1-2.405 1.827Z"/>
    <path fill="#000" d="M158.847 110.777a3.585 3.585 0 1 0 0-7.17 3.585 3.585 0 0 0 0 7.17Z"/>
    <path stroke="#000" stroke-linecap="round" stroke-linejoin="round" stroke-width=".75" d="M65.664 125.243h143.459m-123.556.012-2.532 9.463c-2.227 8.323 4.11 16.47 12.725 16.359l19.772-.253-23.304 41.153 20.325 6.793 19.119-51.054a5.75 5.75 0 0 0-3.917-7.576L96.919 132"/>
    <path stroke="#000" stroke-linecap="round" stroke-linejoin="round" stroke-width=".75" d="m112.226 125.384-1.353 6.013 22.209 3.893a7.5 7.5 0 0 1 6.19 6.925l3.246 52.586-19.689-1.447 3.163-30.363"/>
    <path fill="#000" d="m98.25 212.89 3.303-7.39 4.871 5.165c3.897 4.133 8.998 4.234 10.951 4.21l3.974 1.943a2.503 2.503 0 0 1 1.401 2.246v.186h-10.796l-13.704-6.36Z"/>
    <path stroke="#000" stroke-linecap="round" stroke-linejoin="round" stroke-width=".75" d="m104.5 196.125-3 10.5m11.098-7.951-2.871 7.91 7.411 8.296m16.698-20.683 2.482 19.968c4.784.704 14.427 2.322 16.808.21l-8.639-3.931-2.049-16.212"/>
    <path fill="#000" d="m136.125 219.25-.373-7c1.154.143 5.167 2.494 10.094 2.494 2.749 0 5.287-.24 5.998-.965l9.878 3.341a2.25 2.25 0 0 1 1.528 2.13h-27.125Z"/>
    <path stroke="#000" stroke-linecap="round" stroke-linejoin="round" stroke-width=".75" d="M94.84 77.587v8.538m1.978-6.072c.75.873 2.866 2.533 5.331 2.188 3.081-.431 4.53-4.487 4.53-5.914 0-1.142-.202-4.659-.202-5.76m-4.127 11.64v5.327"/>
    <path fill="#000" d="M95.223 77.25v1.727c-2.99-3.144-3.757-5.087-3.376-8.709.305-2.897 1.897-4.362 3.03-4.733-5.242-1.461-4.873 5.972-4.237 8.005.508 1.627-.424 3.24-.953 3.844-1.24 1.028-3.876 1.5-4.511-4.828-.794-7.91 4.51-10.738 7.688-10.547 1.893.114 4.073.798 4.51 1.709 1.904-1.699 5.289-.977 6.274.59 2.128-.095 4.34 3.531 4.219 4.991-.065.798-.772 1.668-2.074 1.668-1.042 0-1.684-1.016-1.875-1.525-1.175 1.176-2.891 1.557-5.05 1.525-1.729-.025-2.746 2.33-3.039 3.51-.225-.364-.966-.415-1.28-.323-.264.077-.849.45-.849 1.262 0 .851.985 1.637 1.523 1.834Z"/>
    <path stroke="#000" stroke-linecap="round" stroke-linejoin="round" stroke-width=".5" d="M102.35 86.512h2.986"/>
    <path stroke="#000" stroke-linecap="round" stroke-linejoin="round" stroke-width=".75" d="M65.664 120.859v4.335m143.459-4.335v4.335"/>
    <path stroke="#000" stroke-width=".75" d="m57 219.296 15.76-93.912h4.474l-15.37 93.912H57Zm158.895 0-15.76-93.912h-4.475l15.371 93.912h4.864Z"/>
    <path stroke="#000" stroke-width=".775" d="M18.5 219.25h219"/>
    <path stroke="#000" stroke-miterlimit="10" stroke-width=".75" d="M50.626 215.388c.341-.24.664-.512.958-.806a7.237 7.237 0 0 0 2.127-5.133c0-2.015-.82-3.837-2.149-5.155a.93.93 0 0 1 .015-1.321l.007-.008a7.237 7.237 0 0 0 2.127-5.133c0-2.014-.82-3.837-2.149-5.154a.932.932 0 0 1 .015-1.322l.007-.007a7.235 7.235 0 0 0 2.127-5.213c-.025-2.396-1.248-4.487-3.085-5.786v-4.298h-9.802v4.225c-.341.24-.664.512-.958.806a7.236 7.236 0 0 0-2.127 5.133c0 2.015.82 3.837 2.149 5.155a.931.931 0 0 1-.015 1.321l-.007.007a7.238 7.238 0 0 0-2.127 5.133c0 2.015.82 3.837 2.149 5.155a.932.932 0 0 1-.015 1.322l-.007.007a7.235 7.235 0 0 0-2.127 5.213c.025 2.396 1.248 4.486 3.085 5.786"/>
    <path fill="#000" stroke="#000" stroke-miterlimit="10" stroke-width=".75" d="M50.626 215.387v3.863h-9.802v-3.935a7.555 7.555 0 0 0 4.375 1.394h1.252c1.554 0 2.995-.49 4.175-1.322Z"/>
    <path stroke="#000" stroke-miterlimit="10" stroke-width=".75" d="m48.268 175.928 12.342-26.376m-16.972 26.681-10.374-23.596m22.626 6.999-7.714-15.991m-20.93 19.095 11.925 3.328M52.904 166l10.75-2.25"/>
    <path fill="#000" d="M68.401 164.493a1.997 1.997 0 1 0 0-3.993 1.997 1.997 0 0 0 0 3.993Zm-17.049-3.688a1.997 1.997 0 1 0 0-3.994 1.997 1.997 0 0 0 0 3.994Zm-2.178 6.897a1.997 1.997 0 1 0 0-3.994 1.997 1.997 0 0 0 0 3.994Zm-7.26-4.356a1.997 1.997 0 1 0 0-3.994 1.997 1.997 0 0 0 0 3.994Zm12.706 10.89a1.996 1.996 0 1 0 .001-3.992 1.996 1.996 0 0 0-.002 3.992Zm-3.268-30.493a1.997 1.997 0 1 0 0-3.993 1.997 1.997 0 0 0 0 3.993Zm12.344 10.89a1.996 1.996 0 1 0 .001-3.992 1.996 1.996 0 0 0-.001 3.992Zm-2.18 7.987a1.997 1.997 0 1 0 0-3.994 1.997 1.997 0 0 0 0 3.994Zm2.904 6.534a1.997 1.997 0 1 0 0-3.993 1.997 1.997 0 0 0 0 3.993Zm-41.02-3.993a1.997 1.997 0 1 0 0-3.994 1.997 1.997 0 0 0 0 3.994Zm11.255 5.445a1.996 1.996 0 1 0 0-3.993 1.996 1.996 0 0 0 0 3.993Zm0-20.329a1.996 1.996 0 1 0 0-3.993 1.996 1.996 0 0 0 0 3.993Zm4.355 5.809a1.997 1.997 0 1 0 0-3.993 1.997 1.997 0 0 0 0 3.993Zm-9.076-2.178a1.997 1.997 0 1 0 0-3.994 1.997 1.997 0 0 0 0 3.994Zm-1.088 16.698a1.997 1.997 0 1 0 0-3.993 1.997 1.997 0 0 0 0 3.993Zm0-9.075a1.997 1.997 0 1 0 0-3.994 1.997 1.997 0 0 0 0 3.994Zm27.951-8.713a1.997 1.997 0 1 0 0-3.993 1.997 1.997 0 0 0 0 3.993Zm4.358-5.082a1.996 1.996 0 1 0 .001-3.991 1.996 1.996 0 0 0-.001 3.991Z"/>
    <path stroke="#000" stroke-miterlimit="10" stroke-width=".75" d="M46.074 162.74v13.315m-2.435-8.716 2.435 2.392m-5.066 17.211 2.545-2.541 2.356 2.359 2.36-2.359 2.627 2.628m-9.888 11.529 2.545-2.541 2.356 2.36 2.36-2.36 2.627 2.628m-9.888 11.53 2.545-2.541 2.356 2.359 2.36-2.359 2.627 2.628"/>
  </g>
  <defs>
    <clipPath id="a">
      <path fill="#fff" d="M0 0h256v256H0z"/>
    </clipPath>
  </defs>
</svg>
