<?xml version="1.0" encoding="UTF-8"?> <svg xmlns="http://www.w3.org/2000/svg" width="256" height="256" viewBox="0 0 256 256" fill="none"><path d="M82.4692 156.917L101.172 158.301V174.354C101.172 174.354 66.2259 208.939 15.3047 167.99H32.6571L34.5802 152.217C34.5802 152.217 54.3834 172.412 82.4692 156.917Z" fill="#0D2C40"></path><path d="M19.133 82.7581C19.133 82.7581 -18.8724 118.314 12.2457 163.838L29.616 165.501L31.2707 148.621C31.2707 148.621 15.3047 122.332 35.9308 101.579L17.4335 100.141L19.133 82.7581Z" fill="#0D2C40"></path><path d="M23.2642 80.2684C23.2642 80.2684 70.6703 49.5567 106.708 86.6318L90.7329 85.5263L89.0782 103.502C89.0782 103.502 70.9029 81.3739 40.6166 98.5318L22.1641 97.7049L23.2642 80.2684Z" fill="#0D2C40"></path><path d="M93.2148 107.942L94.315 89.4001L111.113 91.0629L161.784 147.786H144.44L142.785 163.559L93.2148 107.942Z" fill="#0D2C40"></path><path d="M87.1523 153.879L151.312 82.7582L168.387 84.4209L167.286 101.857L104.227 172.412L104.496 154.149L87.1523 153.879Z" fill="#02D35F"></path><path d="M153.789 80.1965L171.553 81.6526L170.319 98.6756C170.319 98.6756 196.544 81.8593 215.757 99.7093L234.54 100.536L236.231 83.9625C236.231 83.9625 206.875 50.7072 153.789 80.1965Z" fill="#02D35F"></path><path d="M218.443 102.406L237.226 103.511L238.675 86.8387C238.675 86.8387 279.775 132.848 235.366 172.413L217.199 171.145L218.854 152.271C218.854 152.271 243.434 124.615 218.443 102.406Z" fill="#02D35F"></path><path d="M166.184 152.217L147.213 150.554L146.148 167.37C146.148 167.37 179.816 206.387 230.621 175.253L213.268 173.841L214.923 155.785C214.923 155.785 192.821 173.59 166.184 152.217Z" fill="#02D35F"></path><path d="M190.199 123.15V129.441C190.144 129.686 190.117 129.936 190.118 130.187C190.117 130.441 190.144 130.694 190.199 130.942V141.081H185.512V123.105L190.199 123.15Z" fill="#0D2C40"></path><path d="M194.318 123.15C192.774 123.35 191.332 124.033 190.195 125.1C189.41 125.711 188.761 126.48 188.288 127.358C187.815 128.235 187.529 129.202 187.449 130.196C187.518 131.235 187.797 132.249 188.269 133.177C188.741 134.104 189.396 134.925 190.195 135.589C191.191 136.544 192.481 137.13 193.853 137.252C198.209 137.359 200.356 133.594 200.356 130.205C200.356 126.817 197.69 122.952 194.318 123.15ZM192.896 133.315C192.248 133.286 191.629 133.036 191.141 132.607C190.653 132.177 190.326 131.593 190.212 130.951C190.158 130.703 190.131 130.45 190.132 130.196C190.131 129.945 190.158 129.695 190.212 129.45C190.326 128.808 190.653 128.224 191.141 127.795C191.629 127.365 192.248 127.115 192.896 127.086C193.668 127.159 194.386 127.518 194.908 128.094C195.43 128.67 195.72 129.421 195.72 130.201C195.72 130.98 195.43 131.731 194.908 132.307C194.386 132.883 193.668 133.243 192.896 133.315ZM209.676 128.515C208.996 128.3 206.483 127.904 206.483 126.951C206.483 126.412 207.252 126.349 207.627 126.367C208.701 126.367 210.311 127.653 211.205 127.41C212.001 127.203 212.699 125.136 212.994 124.435C210.735 123.139 208.103 122.657 205.534 123.069C204.9 123.19 204.299 123.449 203.773 123.826C203.247 124.203 202.809 124.69 202.489 125.254C202.168 125.818 201.973 126.445 201.917 127.092C201.86 127.738 201.944 128.39 202.162 129.001C203.298 131.958 206.787 130.798 208.549 132.596C209.273 133.351 207.779 133.692 207.288 133.674C205.775 133.449 204.328 132.897 203.048 132.057C202.61 132.686 201.259 134.187 201.42 134.969C201.581 135.751 203.361 136.335 204.103 136.569C206.59 137.377 210.427 137.683 212.296 135.409C214.631 132.677 212.592 129.468 209.676 128.515ZM173.28 118.17C171.334 118.17 169.432 118.75 167.814 119.836C166.196 120.923 164.935 122.467 164.19 124.274C163.446 126.08 163.251 128.068 163.63 129.986C164.01 131.904 164.947 133.665 166.323 135.048C167.699 136.431 169.452 137.372 171.361 137.754C173.269 138.135 175.248 137.939 177.046 137.191C178.843 136.443 180.38 135.176 181.461 133.55C182.542 131.924 183.119 130.012 183.119 128.057C183.119 125.435 182.083 122.92 180.238 121.066C178.392 119.212 175.89 118.17 173.28 118.17ZM173.28 133.099C172.283 133.097 171.309 132.799 170.48 132.241C169.652 131.682 169.007 130.89 168.626 129.964C168.246 129.037 168.147 128.018 168.343 127.036C168.538 126.053 169.019 125.15 169.725 124.442C170.431 123.734 171.33 123.252 172.308 123.058C173.287 122.863 174.301 122.964 175.222 123.348C176.143 123.732 176.931 124.381 177.484 125.215C178.038 126.048 178.334 127.028 178.334 128.03C178.334 128.697 178.203 129.358 177.948 129.974C177.694 130.59 177.321 131.15 176.85 131.621C176.38 132.092 175.822 132.465 175.207 132.718C174.593 132.972 173.935 133.102 173.271 133.099H173.28Z" fill="#0D2C40"></path><path d="M80.0956 122.925H74.4874L80.4176 138.51H82.9758V131.868L80.0956 122.925ZM85.8649 122.952H91.4731L85.5339 138.537H82.9758V131.895L85.8649 122.952ZM52.8685 120.732C50.985 119.418 48.7994 118.607 46.5178 118.377C43.4946 118.09 40.2567 118.458 37.457 118.458V138.492H37.5912C38.1279 138.555 38.6645 138.609 39.2102 138.645C41.36 138.824 43.5216 138.806 45.6681 138.591C49.7737 138.133 52.4123 136.793 54.0313 135.05C55.4658 133.427 56.2749 131.342 56.3121 129.172V128.695V128.444C56.2763 125.595 55.4624 122.727 52.8685 120.732ZM48.3068 132.974C46.6162 133.926 44.559 133.693 42.6985 133.693V123.258C44.6753 123.258 46.9025 122.997 48.6377 124.219C51.5178 126.26 51.4105 131.212 48.2799 132.974H48.3068ZM72.0277 134.537C71.5715 134.151 70.9901 133.495 70.3729 133.387C69.389 133.252 68.1636 134.582 67.0724 134.69C65.3729 134.861 64.1475 133.684 63.4946 132.264H73.8345C73.8345 129.387 73.593 126.358 71.1511 124.381C66.6162 120.66 59.1744 123.41 58.3425 129.28C57.4481 135.463 62.2871 139.454 68.1815 138.681C69.6432 138.473 71.0151 137.85 72.135 136.883C72.5375 136.524 73.1278 136.029 72.8327 135.445C72.6218 135.096 72.349 134.788 72.0277 134.537ZM68.7271 129.441H63.4499C63.5639 128.822 63.8902 128.262 64.3722 127.859C64.8542 127.456 65.4615 127.235 66.0885 127.235C66.7155 127.235 67.3228 127.456 67.8048 127.859C68.2868 128.262 68.6131 128.822 68.7271 129.441Z" fill="#02D35F"></path></svg> 